<svg xmlns="http://www.w3.org/2000/svg" viewBox="0 0 720 480" role="img" aria-label="Official AI welcome video placeholder">
  <defs>
    <linearGradient id="bg" x1="0" x2="1" y1="0" y2="1">
      <stop stop-color="#1c1c1a"/>
      <stop offset="1" stop-color="#214d63"/>
    </linearGradient>
    <linearGradient id="skin" x1="0" x2="0" y1="0" y2="1">
      <stop stop-color="#c7976d"/>
      <stop offset="1" stop-color="#8d5e44"/>
    </linearGradient>
  </defs>
  <rect width="720" height="480" fill="url(#bg)"/>
  <rect x="42" y="42" width="636" height="396" rx="18" fill="#ffffff" opacity=".08" stroke="#ffffff" stroke-opacity=".18"/>
  <circle cx="360" cy="178" r="74" fill="url(#skin)"/>
  <path d="M250 398c18-92 198-92 220 0" fill="#f1e6d0"/>
  <path d="M286 146c26-76 127-77 151 0 0 0-22-29-76-29s-75 29-75 29Z" fill="#4c3027"/>
  <circle cx="334" cy="180" r="7" fill="#1c1c1a"/>
  <circle cx="386" cy="180" r="7" fill="#1c1c1a"/>
  <path d="M336 220c21 17 45 17 67 0" fill="none" stroke="#1c1c1a" stroke-width="7" stroke-linecap="round"/>
  <text x="360" y="70" text-anchor="middle" fill="#ffffff" font-family="Arial, sans-serif" font-size="24" font-weight="700">Welcome to Official AI</text>
  <text x="360" y="432" text-anchor="middle" fill="#ffffff" fill-opacity=".72" font-family="Arial, sans-serif" font-size="17">Made with Official AI</text>
</svg>
